# xmcd CD database file
#
# Track frame offsets:
#	150
#	15812
#	32145
#	57822
#	72837
#	85307
#	104865
#	118365
#	136060
#	150275
#	164592
#	180952
#	196180
#	208472
#	230860
#	253307
#	269552
#	286412
#
# Disc length: 3943 seconds
#
# Revision: 3
# Processed by: cddbd v1.5.1PL0 Copyright (c) Steve Scherf et al.
# Submitted via: CDex 1.51
#
DISCID=0b0f6512
DTITLE=Various Artist - Sweet Memories 〜ジャズ・ヴォーカルに誘われて〜
DYEAR=1992
DGENRE=Jazz
TTITLE0=Mel Torme - Just in time
TTITLE1=Anita O'day - My funny Valentine
TTITLE2=Fred Astaire - Cheek to cheek
TTITLE3=Blossom Dearie - Tea for two
TTITLE4=Fred Astaire - I concentrate on you
TTITLE5=Toni Harper - Bewitched
TTITLE6=Fred Astaire - 'S wonderful
TTITLE7=Anita O'day - I can't get started
TTITLE8=Oscar Peterson - Ican't give you anything but love
TTITLE9=Ella Fitzgerald - How deep is the ocean
TTITLE10=Mel Torme - Body and soul
TTITLE11=Anita O'day - Tenderly
TTITLE12=Louis Armstrong - What's new
TTITLE13=Ella Fitzgerald and Louis Armstrong - Summertime
TTITLE14=Fred Astaire - Night and day
TTITLE15=Ella Fitzgerald - It's only a papermoon
TTITLE16=Mel Torme - Blue moon
TTITLE17=Anita O'day - Stella by starlight
EXTD=YEAR: 1992
EXTT0=
EXTT1=
EXTT2=
EXTT3=
EXTT4=
EXTT5=
EXTT6=
EXTT7=
EXTT8=
EXTT9=
EXTT10=
EXTT11=
EXTT12=
EXTT13=
EXTT14=
EXTT15=
EXTT16=
EXTT17=
PLAYORDER=
